<?xml version="1.0" encoding="utf-8"?>
<svg viewBox="0 0 1440 320" xmlns="http://www.w3.org/2000/svg">
  <path fill="#f3f4f5" fill-opacity="1" d="M 0 96 L 12.6 112 C 25.3 128 51 160 76 154.7 C 101.1 149 126 107 152 112 C 176.8 117 202 171 227 202.7 C 252.6 235 278 245 303 250.7 C 328.4 256 354 256 379 250.7 C 404.2 245 429 235 455 202.7 C 480 171 505 117 531 101.3 C 555.8 85 581 107 606 106.7 C 631.6 107 657 85 682 101.3 C 707.4 117 733 171 758 170.7 C 783.2 171 808 117 834 101.3 C 858.9 85 884 107 909 112 C 934.7 117 960 107 985 101.3 C 1010.5 96 1036 96 1061 80 C 1086.3 64 1112 32 1137 58.7 C 1162.1 85 1187 171 1213 218.7 C 1237.9 267 1263 277 1288 282.7 C 1313.7 288 1304.632 283.283 1326.701 295.028 C 1349.988 307.421 1351.788 309.246 1384.59 305.705 L 1413.001 315.442 L 1440 320 L 1427.4 320 C 1414.7 320 1389 320 1364 320 C 1338.9 320 1314 320 1288 320 C 1263.2 320 1238 320 1213 320 C 1187.4 320 1162 320 1137 320 C 1111.6 320 1086 320 1061 320 C 1035.8 320 1011 320 985 320 C 960 320 935 320 909 320 C 884.2 320 859 320 834 320 C 808.4 320 783 320 758 320 C 732.6 320 707 320 682 320 C 656.8 320 632 320 606 320 C 581.1 320 556 320 531 320 C 505.3 320 480 320 455 320 C 429.5 320 404 320 379 320 C 353.7 320 328 320 303 320 C 277.9 320 253 320 227 320 C 202.1 320 177 320 152 320 C 126.3 320 101 320 76 320 C 50.5 320 25 320 13 320 L 0 320 L 0 96 Z"/>
</svg>